# xmcd
#
# Track frame offsets:
#	150
#	19345
#	40176
#	61989
#	86000
#	106806
#	125649
#	151230
#	172392
#	193617
#	214381
#	236010
#	258219
#	281982
#	302606
#	323016
#
# Disc length: 4591
#
# Revision: 1
# Processed by: cddbd v1.5.1PL0 Copyright (c) Steve Scherf et al.
# Submitted via: CDex 1.51
# Normalized: r0:TDELIM( - )
#
DISCID=e711ed10
DTITLE=Various Artist - Salsa
DYEAR=1900
DGENRE=Salsa
TTITLE0=Celia Cruz - Rie Y Llora
TTITLE1=Los Danden - Mi Cuerpo
TTITLE2=El Gran Combo - Dime Que Quieres
TTITLE3=Pity Ruiz - Caricias Prohibidas
TTITLE4=Victor Manuelle - El Tonto Que No Te Divido
TTITLE5=Jerry Galante - Dejame Intentar
TTITLE6=Grup Niche - Ganas
TTITLE7=Jerry Rivera - Vuela Muy Alto
TTITLE8=Son De Cali - Y Entonces
TTITLE9=Tito Nieves - La Salsa Vive
TTITLE10=Checo Acosta - Te Quiero
TTITLE11=Marc Anthony - Este Loco Que Te Mira
TTITLE12=Tito Nieves - Senora Ley
TTITLE13=Junior Gonzales - Te He Prometido
TTITLE14=Edit C - Mujer Celosa
TTITLE15=Gilberto Santa Rosa - Por Mas Que Intento
EXTD=
EXTT0=
EXTT1=
EXTT2=
EXTT3=
EXTT4=
EXTT5=
EXTT6=
EXTT7=
EXTT8=
EXTT9=
EXTT10=
EXTT11=
EXTT12=
EXTT13=
EXTT14=
EXTT15=
PLAYORDER=
